Coordinates
version=1
nRows=24
nColumns=22
inDegrees=yes

Units are S.I. units (second, meters, Newtons, ...)
If the header above contains a line with 'inDegrees', this indicates whether rotational values are in degrees (yes) or radians (no).

endheader
time	pelvis_tilt	pelvis_list	pelvis_rotation	pelvis_tx	pelvis_ty	pelvis_tz	hip_flexion_r	hip_adduction_r	hip_rotation_r	knee_angle_r	ankle_angle_r	subtalar_angle_r	hip_flexion_l	hip_adduction_l	hip_rotation_l	knee_angle_l	ankle_angle_l	subtalar_angle_l	lumbar_extension	lumbar_bending	lumbar_rotation
      3.82000000	     -7.27781153	     -2.23920953	    -51.90553784	      0.93290540	      0.84765382	      0.94376615	     -8.37967135	      6.87132410	      8.63139265	    -14.84973391	     23.72519227	     -4.70474166	     33.27307981	    -17.95493112	     -0.84553681	     -6.43678100	      4.86155505	      7.91873980	     -0.83932194	      8.59904777	     24.31099747
      3.83000000	     -7.39283984	     -2.25261716	    -52.34439932	      0.94056699	      0.84602028	      0.94898584	     -8.81753780	      6.66150377	      9.03507020	    -15.14748385	     23.80499995	     -4.50237403	     33.49901016	    -18.18741491	     -1.48367275	     -6.74708335	      5.02037982	      7.78081134	     -0.78101057	      8.65365508	     24.32452706
      3.84000000	     -7.48680080	     -2.28624407	    -52.81263117	      0.94839020	      0.84448773	      0.95426305	     -9.28449790	      6.42145318	      9.46774696	    -15.45559719	     23.82403442	     -4.16925465	     33.63675577	    -18.42776453	     -2.08894421	     -7.26337834	      5.13767901	      7.39804738	     -0.75781649	      8.70861982	     24.39076602
      3.85000000	     -7.58245795	     -2.33412896	    -53.26281946	      0.95647274	      0.84298388	      0.95960067	     -9.77999184	      6.17031746	      9.87233192	    -15.74134197	     23.75596877	     -3.86212053	     33.73813326	    -18.65815322	     -2.59577112	     -8.00003029	      5.36065324	      6.89417691	     -0.73253498	      8.78113805	     24.42307171
      3.86000000	     -7.69021311	     -2.38853883	    -53.73186624	      0.96473768	      0.84151945	      0.96502300	    -10.27397046	      5.91295425	     10.31738994	    -16.03518371	     23.61551620	     -3.57350706	     33.76939181	    -18.89937630	     -3.02110919	     -8.86300867	      5.57802517	      6.39151113	     -0.69842184	      8.87296618	     24.47896909
      3.87000000	     -7.80227002	     -2.43429204	    -54.19985860	      0.97324555	      0.84007871	      0.97048963	    -10.75500350	      5.63086925	     10.77268608	    -16.34075456	     23.40752050	     -3.23161110	     33.73608866	    -19.11426044	     -3.35790462	     -9.81364298	      5.79514219	      5.86943828	     -0.64368049	      8.97271861	     24.52126368
      3.88000000	     -7.92192542	     -2.45746510	    -54.66194935	      0.98199549	      0.83864616	      0.97599592	    -11.20627950	      5.31919417	     11.22263390	    -16.65801808	     23.14029826	     -2.82708268	     33.65522392	    -19.29075450	     -3.60727131	    -10.82055456	      5.97136876	      5.38804907	     -0.55057114	      9.07134572	     24.56527795
      3.89000000	     -8.04885850	     -2.44617806	    -55.11364059	      0.99096970	      0.83722109	      0.98152967	    -11.60828427	      4.97572217	     11.67311731	    -17.00069072	     22.81131976	     -2.36423730	     33.54600896	    -19.41877856	     -3.78850852	    -11.85521603	      6.05183729	      5.00894391	     -0.40901514	      9.16050993	     24.59644870
      3.90000000	     -8.18201642	     -2.39780390	    -55.55655569	      1.00011287	      0.83582035	      0.98709050	    -11.94845123	      4.60903048	     12.16102140	    -17.38660221	     22.43876315	     -1.94165251	     33.42798381	    -19.50240732	     -3.92326484	    -12.90004574	      5.98139762	      4.81265405	     -0.22088423	      9.23364980	     24.59343727
      3.91000000	     -8.28744867	     -2.27771974	    -55.94507858	      1.00952161	      0.83444492	      0.99260582	    -12.20977381	      4.16448108	     12.56081790	    -17.81816644	     21.98304225	     -1.25241512	     33.34856136	    -19.46918965	     -3.99917867	    -13.96081118	      5.69723762	      4.71827754	      0.03279146	      9.24417481	     24.54096695
      3.92000000	     -8.37786854	     -2.11934705	    -56.32267048	      1.01900788	      0.83316620	      0.99811665	    -12.39923504	      3.69669085	     13.03084178	    -18.32090998	     21.48076700	     -0.69765547	     33.31775104	    -19.39260447	     -4.08580245	    -15.04991314	      5.14805554	      4.84932482	      0.31093828	      9.21625133	     24.45076383
      3.93000000	     -8.41687044	     -1.90140033	    -56.63854243	      1.02865472	      0.83200553	      1.00357806	    -12.51496831	      3.16506699	     13.44591516	    -18.89828171	     20.88771556	     -0.04879975	     33.36910976	    -19.20659217	     -4.14181028	    -16.17948088	      4.32662011	      5.16865488	      0.62126122	      9.10252397	     24.28554217
      3.94000000	     -8.38595693	     -1.67092836	    -56.88267225	      1.03844816	      0.83105026	      1.00899702	    -12.61489042	      2.59053231	     13.81087569	    -19.53833077	     20.16826925	      0.65577621	     33.49011693	    -18.92640439	     -4.15414686	    -17.40513526	      3.35437182	      5.63095814	      0.90469164	      8.90875484	     24.05042848
      3.95000000	     -8.26929144	     -1.41768423	    -57.07295214	      1.04829752	      0.83031185	      1.01437928	    -12.66560105	      1.96859142	     14.15447877	    -20.30841146	     19.38489252	      1.29568847	     33.67441470	    -18.54970757	     -4.16515624	    -18.74043370	      2.30974508	      6.09954338	      1.15245107	      8.61061949	     23.74773282
      3.96000000	     -8.06183529	     -1.18978231	    -57.19325999	      1.05826556	      0.82987551	      1.01973852	    -12.73787509	      1.32025463	     14.45476141	    -21.15707553	     18.42545427	      2.01449285	     33.87020296	    -18.08304861	     -4.12370623	    -20.20526874	      1.39149334	      6.54691150	      1.32120464	      8.23375851	     23.37686394
      3.97000000	     -7.74680303	     -0.97166676	    -57.24154605	      1.06832030	      0.82973316	      1.02507081	    -12.80476807	      0.62857906	     14.65006594	    -22.13205138	     17.34762375	      2.67477668	     34.05309465	    -17.49909524	     -4.05264974	    -21.77917655	      0.65911732	      6.83096601	      1.41364704	      7.74733480	     22.96954532
      3.98000000	     -7.33902181	     -0.78428234	    -57.21723306	      1.07844292	      0.82991674	      1.03038488	    -12.87686866	     -0.07813061	     14.73900998	    -23.22675211	     16.10253503	      3.31800900	     34.17109381	    -16.81743120	     -3.96804816	    -23.39815506	      0.20706397	      6.93090175	      1.42135102	      7.17858665	     22.50016627
      3.99000000	     -6.86369923	     -0.62712424	    -57.12575418	      1.08861118	      0.83041636	      1.03564391	    -12.93738009	     -0.78387256	     14.70167723	    -24.42974408	     14.67714776	      3.93408384	     34.20390009	    -16.05375696	     -3.87469097	    -24.99963267	      0.05841288	      6.83967775	      1.35632583	      6.55553835	     22.00741890
      4.00000000	     -6.35649203	     -0.49673266	    -56.96419878	      1.09879000	      0.83118432	      1.04079292	    -12.94383348	     -1.46169765	     14.49808995	    -25.75908039	     13.08961107	      4.42617201	     34.15066086	    -15.23125688	     -3.77690820	    -26.52391646	      0.18442686	      6.63725210	      1.24024777	      5.91430503	     21.49320964
      4.01000000	     -5.85768465	     -0.38166084	    -56.77479601	      1.10891511	      0.83218379	      1.04583644	    -12.84994893	     -2.09446361	     14.19685062	    -27.21053629	     11.31953132	      4.93707272	     33.99171476	    -14.40035826	     -3.72801112	    -27.89057024	      0.59237899	      6.32599771	      1.10746130	      5.29714702	     20.97530596
      4.02000000	     -5.40891371	     -0.28625799	    -56.59727015	      1.11887944	      0.83336556	      1.05077869	    -12.61723511	     -2.64990308	     13.86566975	    -28.78932343	      9.40024937	      5.51852298	     33.73061152	    -13.62916521	     -3.77777574	    -29.06920413	      1.25069319	      5.87549873	      0.97412249	      4.74478409	     20.52646564
      4.03000000	     -5.02815902	     -0.18693826	    -56.41330281	      1.12869577	      0.83463036	      1.05552523	    -12.18467031	     -3.13692114	     13.43235004	    -30.53398330	      7.40142819	      5.89434732	     33.40631074	    -12.90600290	     -3.89349019	    -30.04332502	      2.03165904	      5.52377259	      0.87110748	      4.27133284	     20.10413446
      4.04000000	     -4.72856250	     -0.07801342	    -56.26927485	      1.13826286	      0.83595641	      1.06010590	    -11.52443847	     -3.55855811	     12.97645877	    -32.44782440	      5.33145540	      6.11442181	     33.01298954	    -12.26749981	     -4.10196767	    -30.78944827	      2.87884402	      5.27968229	      0.80936887	      3.88624509	     19.75169532
      4.05000000	     -4.51338568	      0.03746711	    -56.20642729	      1.14750747	      0.83732868	      1.06456958	    -10.63470821	     -3.91761636	     12.57536511	    -34.51916513	      3.21253661	      6.26667632	     32.54884724	    -11.74713930	     -4.45033302	    -31.31895400	      3.79889622	      5.01409681	      0.78783167	      3.59676164	     19.49352389
